<svg xmlns:mydata="http://www.w3.org/2000/svg" mydata:contrastcolor="ffffff" mydata:template="Contrast" mydata:presentation="2.5" mydata:layouttype="undefined" mydata:specialfontid="undefined" mydata:id1="100" mydata:id2="099" mydata:companyname="Fastfood" mydata:companytagline="" version="1.1" xmlns="http://www.w3.org/2000/svg" xmlns:xlink="http://www.w3.org/1999/xlink" viewBox="0 0 550 470" class="svg-primary-tile"><g fill="#009775" fill-rule="none" stroke="none" stroke-width="1" stroke-linecap="butt" stroke-linejoin="miter" stroke-miterlimit="10" stroke-dasharray="" stroke-dashoffset="0" font-family="none" font-weight="none" font-size="none" text-anchor="none" style="mix-blend-mode: normal"><g data-paper-data="{&quot;isGlobalGroup&quot;:true,&quot;bounds&quot;:{&quot;x&quot;:146.00004913127154,&quot;y&quot;:106,&quot;width&quot;:257.99990173745687,&quot;height&quot;:258}}"><g data-paper-data="{&quot;isIcon&quot;:&quot;true&quot;,&quot;iconType&quot;:&quot;icon&quot;,&quot;rawIconId&quot;:&quot;984453&quot;,&quot;selectedEffects&quot;:{&quot;container&quot;:&quot;circle_simple_filledplus&quot;,&quot;transformation&quot;:&quot;&quot;,&quot;pattern&quot;:&quot;&quot;},&quot;isDetailed&quot;:false,&quot;fillRule&quot;:&quot;nonzero&quot;,&quot;blockLetter&quot;:&quot;O&quot;,&quot;blockLetterId&quot;:0,&quot;relativeBoundsIconToContainer&quot;:{&quot;top&quot;:-1.4206325285602739e-7,&quot;left&quot;:0.000008897264553456388},&quot;widthRatioIconToContainer&quot;:0.6986769418811918,&quot;heightRatioIconToContainer&quot;:0.7956826294325985,&quot;bounds&quot;:{&quot;x&quot;:196.38986730367202,&quot;y&quot;:156.38991643494353,&quot;width&quot;:157.2201081725908,&quot;height&quot;:157.22006886756986},&quot;iconStyle&quot;:&quot;standalone&quot;,&quot;suitableAsStandaloneIcon&quot;:true}" fill-rule="nonzero"><path d="M205.14911,234.99992c0,-38.57749 31.27324,-69.85074 69.85074,-69.85074c38.57749,0 69.85074,31.27324 69.85074,69.85074c0,38.57749 -31.27324,69.85074 -69.85074,69.85074c-38.57749,0 -69.85074,-31.27324 -69.85074,-69.85074zM220.52509,226.29233c-0.07088,0.07079 -0.13415,0.14783 -0.18978,0.23112c-0.05564,0.0833 -0.10263,0.17122 -0.14096,0.26378c-0.03835,0.09256 -0.06727,0.18795 -0.0868,0.2862c-0.01953,0.09825 -0.02929,0.19746 -0.02929,0.29764c0,0.10018 0.00976,0.19939 0.02929,0.29764c0.01953,0.09825 0.04846,0.19365 0.0868,0.2862c0.03835,0.09256 0.08533,0.18048 0.14096,0.26378c0.05563,0.08319 0.11889,0.16024 0.18978,0.23112l6.55465,6.55465l-6.54701,6.54443c-0.07079,0.07079 -0.13404,0.14783 -0.18978,0.23112c-0.05564,0.08319 -0.10263,0.17106 -0.14096,0.26362c-0.03835,0.09256 -0.06727,0.18795 -0.0868,0.2862c-0.01963,0.09825 -0.02944,0.19746 -0.02944,0.29764c0,0.10018 0.00976,0.19939 0.02929,0.29764c0.01953,0.09825 0.04842,0.19365 0.08665,0.2862c0.03835,0.09256 0.08533,0.18048 0.14096,0.26378c0.05563,0.0833 0.11889,0.1604 0.18978,0.23128l53.3908,53.39538c0.07079,0.07079 0.14783,0.134 0.23112,0.18963c0.0833,0.05573 0.17122,0.10277 0.26378,0.14111c0.09256,0.03835 0.18795,0.06727 0.2862,0.0868c0.09825,0.01953 0.19746,0.02929 0.29764,0.02929c0.10018,0 0.19934,-0.00976 0.29748,-0.02929c0.09825,-0.01953 0.19365,-0.04846 0.2862,-0.0868c0.09256,-0.03835 0.18048,-0.08533 0.26378,-0.14096c0.0833,-0.05563 0.1604,-0.11889 0.23128,-0.18978l53.39676,-53.39523c0.143,-0.143 0.25325,-0.30796 0.33074,-0.4949c0.0774,-0.18694 0.1161,-0.38155 0.1161,-0.58384c0,-0.2023 -0.0387,-0.39691 -0.1161,-0.58384c-0.0774,-0.18683 -0.18764,-0.3518 -0.33074,-0.4949l-6.55068,-6.55068l6.54625,-6.54641c0.07088,-0.07079 0.13415,-0.14783 0.18978,-0.23112c0.05564,-0.0833 0.10263,-0.17122 0.14096,-0.26378c0.03835,-0.09256 0.06727,-0.18795 0.0868,-0.2862c0.01953,-0.09825 0.02929,-0.19746 0.02929,-0.29764c0,-0.10018 -0.00976,-0.19939 -0.02929,-0.29764c-0.01953,-0.09825 -0.04846,-0.19365 -0.0868,-0.2862c-0.03835,-0.09256 -0.08533,-0.18048 -0.14096,-0.26378c-0.05563,-0.0833 -0.11889,-0.16034 -0.18978,-0.23112l-53.3963,-53.39636c-0.07089,-0.07084 -0.14798,-0.13408 -0.23128,-0.18973c-0.08319,-0.05564 -0.17106,-0.10263 -0.26362,-0.14096c-0.09256,-0.03833 -0.18795,-0.06727 -0.2862,-0.08682c-0.09825,-0.01953 -0.19746,-0.02931 -0.29764,-0.02931c-0.10018,0 -0.19939,0.00976 -0.29764,0.02931c-0.09825,0.01955 -0.19365,0.04849 -0.2862,0.08682c-0.09256,0.03834 -0.18048,0.08532 -0.26378,0.14096c-0.0833,0.05565 -0.16034,0.1189 -0.23112,0.18973l-53.39417,53.39423zM326.23683,227.3732l-51.23577,51.23577l-19.48209,-19.48026l-31.75766,-31.75766l51.23669,-51.23669zM313.29566,228.4553c0.07079,-0.07079 0.134,-0.14783 0.18963,-0.23112c0.05573,-0.0833 0.10277,-0.17122 0.14111,-0.26378c0.03835,-0.09256 0.06727,-0.18795 0.0868,-0.2862c0.01953,-0.09825 0.02929,-0.19746 0.02929,-0.29764c0,-0.10018 -0.00976,-0.19939 -0.02929,-0.29764c-0.01953,-0.09825 -0.04846,-0.19359 -0.0868,-0.28605c-0.03835,-0.09256 -0.08533,-0.18048 -0.14096,-0.26378c-0.05563,-0.0833 -0.11889,-0.1604 -0.18978,-0.23128l-37.21342,-37.21648c-0.143,-0.143 -0.30796,-0.25325 -0.4949,-0.33074c-0.18683,-0.0774 -0.38145,-0.1161 -0.58384,-0.1161c-0.20229,0 -0.39685,0.0387 -0.58369,0.1161c-0.18693,0.0774 -0.35195,0.18764 -0.49505,0.33074l-37.2119,37.21495c-0.07088,0.07089 -0.13415,0.14798 -0.18978,0.23128c-0.05564,0.08319 -0.10263,0.17106 -0.14096,0.26362c-0.03835,0.09256 -0.06727,0.18795 -0.0868,0.2862c-0.01953,0.09825 -0.02929,0.19746 -0.02929,0.29764c0,0.10018 0.00976,0.19939 0.02929,0.29764c0.01953,0.09825 0.04846,0.19365 0.0868,0.2862c0.03835,0.09255 0.08533,0.18042 0.14096,0.26362c0.05563,0.0833 0.11889,0.1604 0.18978,0.23128l37.21037,37.21342c0.07079,0.07079 0.14783,0.134 0.23112,0.18963c0.0833,0.05573 0.17122,0.10277 0.26378,0.14111c0.09256,0.03835 0.18795,0.06727 0.2862,0.0868c0.09825,0.01953 0.19746,0.02929 0.29764,0.02929c0.10018,0 0.19934,-0.00976 0.29748,-0.02929c0.09825,-0.01953 0.19365,-0.04846 0.2862,-0.0868c0.09256,-0.03835 0.18048,-0.08533 0.26378,-0.14096c0.0833,-0.05563 0.1604,-0.11889 0.23128,-0.18978zM275.0035,208.49951l18.87262,18.87536l-18.87415,18.87277l-18.87262,-18.87262zM280.93754,226.29644l-4.8518,-4.85042c-0.07079,-0.07088 -0.14783,-0.13415 -0.23112,-0.18978c-0.0833,-0.05563 -0.17122,-0.10263 -0.26378,-0.14096c-0.09256,-0.03824 -0.18795,-0.06713 -0.2862,-0.08665c-0.09825,-0.01953 -0.19746,-0.02929 -0.29764,-0.02929c-0.10018,0 -0.19939,0.00976 -0.29764,0.02929c-0.09825,0.01963 -0.19365,0.04861 -0.2862,0.08696c-0.09256,0.03835 -0.18048,0.08533 -0.26378,0.14096c-0.0833,0.05563 -0.16034,0.11889 -0.23112,0.18978l-4.84935,4.85057c-0.07079,0.07088 -0.134,0.14798 -0.18963,0.23128c-0.05563,0.0833 -0.10263,0.17122 -0.14096,0.26378c-0.03835,0.09256 -0.06727,0.18795 -0.0868,0.2862c-0.01953,0.09825 -0.02924,0.19746 -0.02914,0.29764c0,0.10018 0.00976,0.19939 0.02929,0.29764c0.01953,0.09825 0.04846,0.19365 0.0868,0.2862c0.03835,0.09245 0.08538,0.18032 0.14111,0.26362c0.05563,0.0833 0.11884,0.16034 0.18963,0.23112l4.8518,4.85042c0.07088,0.07088 0.14798,0.13415 0.23128,0.18978c0.0833,0.05563 0.17122,0.10257 0.26378,0.14081c0.09256,0.03835 0.18795,0.06727 0.2862,0.0868c0.09825,0.01953 0.19746,0.02929 0.29764,0.02929c0.10018,0 0.19934,-0.00976 0.29748,-0.02929c0.09825,-0.01963 0.19365,-0.04861 0.2862,-0.08696c0.09256,-0.03835 0.18048,-0.08533 0.26378,-0.14096c0.0833,-0.05563 0.16034,-0.11889 0.23112,-0.18978l4.84935,-4.85057c0.07079,-0.07088 0.134,-0.14798 0.18963,-0.23128c0.05563,-0.0833 0.10263,-0.17122 0.14096,-0.26378c0.03835,-0.09256 0.06727,-0.18795 0.0868,-0.2862c0.01953,-0.09825 0.02929,-0.19746 0.02929,-0.29764c0,-0.10018 -0.00981,-0.19939 -0.02944,-0.29764c-0.01953,-0.09825 -0.04846,-0.19365 -0.0868,-0.2862c-0.03835,-0.09245 -0.08533,-0.18032 -0.14096,-0.26362c-0.05573,-0.0833 -0.11899,-0.16034 -0.18978,-0.23112zM353.59518,236.54864l-0.01832,0.78531l-0.02636,0.78486l-0.0335,0.78486l-0.04155,0.78486l-0.04959,0.78396l-0.05673,0.78396l-0.06477,0.78307l-0.07237,0.78263l-0.08041,0.78218l-0.08844,0.78128l-0.09604,0.77995l-0.10363,0.7795l-0.11212,0.77816l-0.11972,0.77726l-0.12731,0.77593l-0.1358,0.77503l-0.14339,0.77325l-0.15099,0.77146l-0.15948,0.77057l-0.16707,0.76833l-0.17466,0.76699l-0.18271,0.76476l-0.19074,0.76297l-0.19833,0.76118l-0.20593,0.75895l-0.21352,0.75716l-0.22156,0.75448l-0.22872,0.75225l-0.23675,0.74957l-0.24434,0.74779l-0.2515,0.74466l-0.25909,0.74242l-0.26668,0.7393l-0.27338,0.73706l-0.28142,0.73393l-0.28812,0.73081l-0.29528,0.72813l-0.30242,0.72544l-0.17823,0.41767l-0.3118,0.71696l-0.32074,0.7174l-0.32743,0.71428l-0.33458,0.71071l-0.34173,0.70802l-0.34888,0.70401l-0.35558,0.70133l-0.36272,0.6973l-0.36987,0.69373l-0.37702,0.69016l-0.38372,0.68614l-0.39042,0.68212l-0.39757,0.67855l-0.40472,0.67452l-0.41097,0.67006l-0.41811,0.66604l-0.42526,0.66201l-0.43151,0.6571l-0.43822,0.65308l-0.44492,0.64861l-0.45117,0.6437l-0.45787,0.63968l-0.46457,0.63432l-0.47083,0.62986l-0.47708,0.62494l-0.48333,0.62047l-0.48959,0.61511l-0.49584,0.61019l-0.50165,0.60528l-0.50746,0.59992l-0.51371,0.59501l-0.51952,0.58965l-0.52488,0.58473l-0.53113,0.57937l-0.53649,0.57402l-0.54185,0.56866l-0.54721,0.56374l-0.55257,0.55793l-0.32207,0.32029l-0.55838,0.54676l-0.56598,0.54453l-0.57178,0.53872l-0.57669,0.53336l-0.5825,0.52756l-0.58741,0.5222l-0.59233,0.51594l-0.59769,0.51058l-0.60305,0.50433l-0.60796,0.49807l-0.61288,0.49226l-0.61779,0.48646l-0.6227,0.47976l-0.62806,0.47351l-0.63209,0.46725l-0.63745,0.461l-0.64191,0.4543l-0.64638,0.44805l-0.65084,0.4409l-0.65532,0.43464l-0.65978,0.42795l-0.66425,0.42124l-0.66827,0.41409l-0.67274,0.40784l-0.67675,0.40069l-0.68033,0.39355l-0.6848,0.3873l-0.68837,0.3797l-0.69194,0.373l-0.69597,0.36585l-0.69954,0.35915l-0.70266,0.352l-0.70624,0.34485l-0.70981,0.33771l-0.71294,0.33056l-0.71562,0.32386l-0.7192,0.31671l-0.72188,0.30957l-0.71339,0.29795l-0.72768,0.29528l-0.73081,0.28857l-0.73393,0.28142l-0.73662,0.27383l-0.7393,0.26668l-0.74198,0.25953l-0.74511,0.25194l-0.74689,0.24434l-0.75002,0.23675l-0.7518,0.2296l-0.75448,0.22156l-0.75672,0.21397l-0.75895,0.20637l-0.76118,0.19878l-0.76297,0.19074l-0.76476,0.18271l-0.76654,0.17555l-0.76877,0.16707l-0.77012,0.15948l-0.77146,0.15188l-0.77325,0.14339l-0.77503,0.13625l-0.77593,0.12776l-0.77682,0.12016l-0.7786,0.11212l-0.7795,0.10408l-0.77995,0.09649l-0.78128,0.08844l-0.78218,0.08085l-0.78263,0.07282l-0.78352,0.06477l-0.78352,0.05762l-0.78441,0.04959l-0.78486,0.04155l-0.78486,0.0344l-0.78486,0.02636l-0.78531,0.01876l-0.78531,0.01161l-0.78531,0.00358l-0.7728,-0.00358l-0.78499,-0.01117l-0.78522,-0.01832l-0.78504,-0.02636l-0.78486,-0.03395l-0.78459,-0.0411l-0.78423,-0.04959l-0.78379,-0.05673l-0.78329,-0.06477l-0.78267,-0.07237l-0.78196,-0.08041l-0.7812,-0.08844l-0.7803,-0.09604l-0.77936,-0.10408l-0.77833,-0.11167l-0.77718,-0.11972l-0.77597,-0.12776l-0.77467,-0.13535l-0.77325,-0.14339l-0.77177,-0.15143l-0.77025,-0.15903l-0.76855,-0.16707l-0.76677,-0.17466l-0.76503,-0.18271l-0.76306,-0.19074l-0.76105,-0.19833l-0.75904,-0.20593l-0.7568,-0.21352l-0.75457,-0.22156l-0.75229,-0.22916l-0.74984,-0.23631l-0.74742,-0.24434l-0.74484,-0.2515l-0.74224,-0.25909l-0.73952,-0.26668l-0.7368,-0.27338l-0.73402,-0.28142l-0.73103,-0.28812l-0.72817,-0.29528l-0.72514,-0.30242l-0.41784,-0.17823l-0.71687,-0.3118l-0.71727,-0.32074l-0.71419,-0.32743l-0.71102,-0.33458l-0.70776,-0.34173l-0.70431,-0.34888l-0.70097,-0.35558l-0.6974,-0.36272l-0.69373,-0.36987l-0.69007,-0.37702l-0.68623,-0.38372l-0.68238,-0.39042l-0.67841,-0.39757l-0.67439,-0.40472l-0.67024,-0.41097l-0.66606,-0.41811l-0.66176,-0.42526l-0.65743,-0.43151l-0.65298,-0.43822l-0.64852,-0.44492l-0.64392,-0.45117l-0.63928,-0.45787l-0.63463,-0.46457l-0.62982,-0.47083l-0.62502,-0.47708l-0.62014,-0.48333l-0.6152,-0.48959l-0.61023,-0.49584l-0.60518,-0.50165l-0.60012,-0.50746l-0.59497,-0.51371l-0.58978,-0.51952l-0.5846,-0.52488l-0.57937,-0.53113l-0.57406,-0.53649l-0.56879,-0.54185l-0.56343,-0.54721l-0.55807,-0.55257l-0.32019,-0.32207l-0.54699,-0.55793l-0.54426,-0.56642l-0.53886,-0.57178l-0.53323,-0.57669l-0.52769,-0.5825l-0.52197,-0.58741l-0.51617,-0.59233l-0.51031,-0.59769l-0.50437,-0.60305l-0.49839,-0.60796l-0.49231,-0.61288l-0.4861,-0.61779l-0.47994,-0.6227l-0.47359,-0.62762l-0.46725,-0.63254l-0.46087,-0.63745l-0.45434,-0.64147l-0.44782,-0.64683l-0.44125,-0.65084l-0.43456,-0.65532l-0.4279,-0.65978l-0.42115,-0.66425l-0.41436,-0.66827l-0.40757,-0.67274l-0.40069,-0.67675l-0.39377,-0.68033l-0.38689,-0.6848l-0.37992,-0.68837l-0.37295,-0.69194l-0.36594,-0.69597l-0.35897,-0.69954l-0.35187,-0.70266l-0.3449,-0.70624l-0.33784,-0.70981l-0.33074,-0.71294l-0.32372,-0.71562l-0.31666,-0.7192l-0.30961,-0.72188l-0.29773,-0.71339l-0.29554,-0.72768l-0.28852,-0.73081l-0.28129,-0.73393l-0.27405,-0.73662l-0.26672,-0.7393l-0.25936,-0.74198l-0.2519,-0.74511l-0.24444,-0.74689l-0.23693,-0.75002l-0.22929,-0.7518l-0.2217,-0.75448l-0.21402,-0.75672l-0.20634,-0.75895l-0.19856,-0.76118l-0.19083,-0.76297l-0.18301,-0.76476l-0.1752,-0.76654l-0.16734,-0.76877l-0.15952,-0.77012l-0.15162,-0.77146l-0.14371,-0.77325l-0.13585,-0.77503l-0.12798,-0.77593l-0.12003,-0.77682l-0.11217,-0.7786l-0.10426,-0.7795l-0.09635,-0.77995l-0.08854,-0.78128l-0.08068,-0.78218l-0.07286,-0.78263l-0.06508,-0.78352l-0.05727,-0.78352l-0.04954,-0.78441l-0.04181,-0.78486l-0.03412,-0.78486l-0.02649,-0.78486l-0.0189,-0.78531l-0.0113,-0.78531l-0.00384,-0.78531l0.00353,-0.7728l0.01104,-0.78486l0.01863,-0.78531l0.02618,-0.78531l0.03382,-0.78486l0.0415,-0.78441l0.04923,-0.78441l0.05695,-0.78352l0.06477,-0.78352l0.0725,-0.78249l0.08036,-0.78196l0.08822,-0.7812l0.09609,-0.78035l0.10391,-0.77936l0.11185,-0.77829l0.11972,-0.77718l0.12762,-0.77601l0.13553,-0.77463l0.14339,-0.77329l0.1513,-0.77177l0.15916,-0.77021l0.16702,-0.76855l0.17488,-0.76681l0.18271,-0.76498l0.19052,-0.76306l0.19825,-0.76109l0.20602,-0.759l0.21375,-0.7568l0.22139,-0.75462l0.22902,-0.75225l0.23662,-0.74988l0.24412,-0.74738l0.25163,-0.74484l0.25909,-0.74224l0.26646,-0.73956l0.27378,-0.7368l0.28102,-0.73393l0.28826,-0.73112l0.29541,-0.72813l0.30246,-0.72514l0.17801,-0.41776l0.31198,-0.71683l0.32051,-0.71732l0.32757,-0.71419l0.33463,-0.71102l0.34164,-0.70771l0.34875,-0.70441l0.35576,-0.70093l0.36277,-0.6974l0.36978,-0.69377l0.37675,-0.69002l0.38377,-0.68627l0.39064,-0.68238l0.39761,-0.67841l0.40445,-0.67439l0.41128,-0.67024l0.41811,-0.66608l0.42486,-0.66175l0.43156,-0.65746l0.43826,-0.65299l0.44487,-0.64848l0.45139,-0.64393l0.45796,-0.63932l0.4644,-0.63459l0.47078,-0.62986l0.47708,-0.62503l0.48338,-0.62014l0.48959,-0.6152l0.49566,-0.61023l0.50174,-0.60519l0.50768,-0.6001l0.51362,-0.59498l0.51938,-0.5898l0.52519,-0.5846l0.53082,-0.57936l0.5364,-0.57407l0.5419,-0.56877l0.5473,-0.56343l0.55262,-0.55807l0.32181,-0.32011l0.55829,-0.54698l0.56628,-0.54425l0.57164,-0.53886l0.57692,-0.53327l0.58219,-0.52765l0.58741,-0.52197l0.59259,-0.51617l0.59774,-0.51031l0.60286,-0.50442l0.60792,-0.49834l0.61293,-0.49231l0.61789,-0.48615l0.6228,-0.47989l0.62765,-0.47359l0.63244,-0.4673l0.63717,-0.46082l0.64184,-0.45434l0.64644,-0.44782l0.65097,-0.44125l0.65543,-0.4346l0.65983,-0.4279l0.66414,-0.42115l0.6684,-0.41436l0.67256,-0.40757l0.67662,-0.40069l0.68065,-0.39377l0.68453,-0.38689l0.68841,-0.37992l0.69212,-0.37295l0.69583,-0.36598l0.6994,-0.35893l0.70289,-0.35191l0.70628,-0.34485l0.70964,-0.33784l0.71285,-0.33078l0.71598,-0.32372l0.71906,-0.31666l0.72205,-0.30961l0.7133,-0.29777l0.72781,-0.29558l0.7309,-0.28848l0.7338,-0.28134l0.73662,-0.27405l0.73934,-0.26672l0.74206,-0.25931l0.7447,-0.25194l0.74724,-0.24444l0.74975,-0.23688l0.75212,-0.22929l0.75444,-0.2217l0.75672,-0.21402l0.75891,-0.20634l0.76096,-0.19856l0.76297,-0.19083l0.76489,-0.18301l0.76677,-0.1752l0.76847,-0.16734l0.77017,-0.15948l0.77172,-0.15165l0.77325,-0.14371l0.77463,-0.13585l0.77593,-0.12794l0.77718,-0.12003l0.77833,-0.11217l0.77936,-0.10426l0.78035,-0.0964l0.7812,-0.08854l0.782,-0.08068l0.78271,-0.07282l0.78329,-0.06508l0.78388,-0.05727l0.78428,-0.04954l0.78468,-0.04181l0.78494,-0.03412l0.78517,-0.02649l0.78526,-0.0189l0.78513,-0.0113l0.78531,-0.00384l0.7728,0.00353l0.78486,0.01104l0.78531,0.01863l0.78486,0.02618l0.78486,0.03382l0.78486,0.0415l0.78396,0.04923l0.78396,0.05695l0.78307,0.06473l0.78263,0.07254l0.78218,0.08036l0.78128,0.08822l0.77995,0.09604l0.7795,0.10395l0.7786,0.11185l0.77682,0.11972l0.77593,0.12762l0.77503,0.13548l0.77325,0.14344l0.77146,0.1513l0.77057,0.15916l0.76833,0.16702l0.76699,0.17488l0.76476,0.18271l0.76297,0.19052l0.76118,0.19825l0.75895,0.20602l0.75716,0.21375l0.75448,0.22139l0.75225,0.22902l0.74957,0.23662l0.74779,0.24412l0.74466,0.25163l0.74242,0.25909l0.7393,0.26646l0.73706,0.27378l0.73393,0.28106l0.73081,0.28822l0.72813,0.29541l0.72544,0.30246l0.41767,0.17806l0.71696,0.31193l0.71696,0.32051l0.71428,0.32757l0.71115,0.33463l0.70758,0.34169l0.70445,0.3487l0.70088,0.35576l0.69775,0.36277l0.69373,0.36978l0.68971,0.37679l0.68658,0.38372l0.68212,0.39064l0.67855,0.39761l0.67452,0.40445l0.67006,0.41128l0.66604,0.41811l0.66201,0.42482l0.6571,0.43161l0.65308,0.43822l0.64861,0.44487l0.6437,0.45144l0.63968,0.45796l0.63432,0.46435l0.62986,0.47078l0.62494,0.47712l0.62047,0.48338l0.61511,0.48954l0.61019,0.49566l0.60528,0.50174l0.59992,0.50773l0.59501,0.51358l0.58965,0.51942l0.58473,0.52515l0.57937,0.53082l0.57402,0.53645l0.56866,0.54187l0.56374,0.54731l0.55793,0.55263l0.32029,0.32188l0.54676,0.5583l0.54453,0.56631l0.53872,0.57162l0.53336,0.57693l0.52756,0.58217l0.52175,0.58742l0.51639,0.59259l0.51013,0.59775l0.50478,0.60285l0.49807,0.60792l0.49226,0.61294l0.48601,0.61788l0.48021,0.6228l0.47351,0.62766l0.46725,0.6324l0.461,0.63718l0.4543,0.64183l0.4476,0.64647l0.44134,0.65094l0.43464,0.65545l0.42795,0.65983l0.42124,0.66411l0.41409,0.66841l0.40784,0.67256l0.40069,0.67662l0.39355,0.6806l0.38685,0.68458l0.38014,0.68837l0.373,0.69217l0.36585,0.69579l0.35915,0.6994l0.352,0.70289l0.34485,0.70628l0.33771,0.70964l0.33056,0.71285l0.32386,0.71598l0.31671,0.71906l0.30957,0.72196l0.29795,0.71339l0.29528,0.72781l0.28857,0.7309l0.28142,0.73375l0.27428,0.73662l0.26668,0.73938l0.25909,0.74206l0.25194,0.7447l0.24434,0.74724l0.2372,0.74975l0.22916,0.75212l0.22156,0.75444l0.21397,0.75676l0.20637,0.75881l0.19878,0.76101l0.19074,0.76297l0.18315,0.76489l0.17511,0.76677l0.16707,0.76847l0.15948,0.77012l0.15188,0.77177l0.14384,0.77325l0.1358,0.77463l0.12776,0.77593l0.12016,0.77722l0.11212,0.77829l0.10408,0.77936l0.09649,0.78035l0.08844,0.7812l0.08085,0.782l0.07282,0.78271l0.06477,0.78352l0.05762,0.78352l0.04959,0.78441l0.04155,0.78486l0.0344,0.78486l0.02636,0.78531l0.01876,0.78486l0.01161,0.78531l0.00358,0.78531v0.01742l-0.00358,0.75493zM349.91836,234.25884l-0.01072,-0.75002l-0.01787,-0.74957l-0.02501,-0.74912l-0.03216,-0.74912l-0.03975,-0.74867l-0.04735,-0.74779l-0.0545,-0.74734l-0.06165,-0.74689l-0.06924,-0.74599l-0.07683,-0.74514l-0.08398,-0.74439l-0.09157,-0.74341l-0.09917,-0.74242l-0.10676,-0.74131l-0.11391,-0.74014l-0.12195,-0.73898l-0.1291,-0.73765l-0.1367,-0.73625l-0.14429,-0.73478l-0.15143,-0.73335l-0.15903,-0.7317l-0.16662,-0.73l-0.17422,-0.72835l-0.18136,-0.72652l-0.18895,-0.72464l-0.19655,-0.72273l-0.20325,-0.72067l-0.21129,-0.71861l-0.21799,-0.71655l-0.22559,-0.71428l-0.23273,-0.71205l-0.23988,-0.70972l-0.24702,-0.70736l-0.25418,-0.70486l-0.26132,-0.70244l-0.26802,-0.69985l-0.27473,-0.69726l-0.28232,-0.69476l-0.28366,-0.68046l-0.29528,-0.68913l-0.30197,-0.68609l-0.30867,-0.68306l-0.31538,-0.67988l-0.32207,-0.67671l-0.32877,-0.67341l-0.33503,-0.67006l-0.34217,-0.66657l-0.34843,-0.66313l-0.35513,-0.65951l-0.36183,-0.6559l-0.36808,-0.65214l-0.37523,-0.64839l-0.38149,-0.64451l-0.38774,-0.64057l-0.39444,-0.6366l-0.40114,-0.63258l-0.4074,-0.62842l-0.41365,-0.62423l-0.4199,-0.62003l-0.42615,-0.61574l-0.43286,-0.61136l-0.43866,-0.60698l-0.44492,-0.60251l-0.45117,-0.598l-0.45698,-0.59344l-0.46279,-0.58889l-0.46904,-0.5842l-0.47484,-0.57951l-0.48065,-0.57479l-0.48646,-0.57002l-0.49226,-0.56523l-0.49763,-0.56038l-0.50343,-0.55554l-0.5088,-0.55062l-0.51416,-0.54571l-0.51952,-0.54077l-0.52711,-0.53846l-0.30063,-0.30226l-0.53292,-0.5278l-0.53739,-0.52256l-0.54275,-0.51729l-0.54766,-0.51192l-0.55257,-0.50649l-0.55749,-0.50098l-0.5624,-0.49542l-0.56686,-0.48976l-0.57178,-0.4841l-0.57669,-0.47829l-0.58161,-0.47248l-0.58608,-0.46658l-0.59054,-0.4606l-0.59546,-0.45466l-0.59948,-0.44853l-0.60439,-0.44242l-0.60886,-0.43629l-0.61288,-0.43004l-0.61779,-0.42379l-0.62137,-0.41749l-0.62628,-0.4111l-0.62986,-0.40476l-0.63432,-0.39832l-0.63834,-0.39185l-0.64191,-0.38537l-0.64638,-0.37885l-0.64996,-0.37228l-0.65352,-0.36576l-0.65755,-0.35915l-0.66068,-0.3525l-0.6647,-0.34593l-0.66827,-0.33927l-0.67139,-0.33261l-0.67497,-0.32596l-0.67765,-0.31931l-0.68167,-0.31265l-0.68435,-0.30599l-0.6906,-0.30081l-0.39221,-0.16711l-0.6915,-0.2887l-0.69462,-0.28196l-0.6973,-0.27503l-0.69954,-0.26815l-0.70222,-0.26114l-0.7049,-0.25413l-0.70713,-0.24707l-0.70981,-0.23993l-0.71205,-0.23278l-0.71428,-0.22554l-0.71651,-0.21831l-0.7183,-0.21102l-0.72098,-0.20374l-0.72232,-0.19633l-0.72456,-0.18895l-0.72679,-0.18158l-0.72813,-0.17413l-0.72992,-0.16667l-0.7317,-0.15925l-0.73349,-0.1517l-0.73483,-0.14424l-0.73617,-0.13673l-0.73751,-0.12923l-0.7393,-0.12173l-0.74019,-0.11422l-0.74108,-0.10672l-0.74242,-0.09921l-0.74376,-0.09171l-0.74421,-0.08421l-0.74555,-0.07679l-0.74599,-0.06933l-0.74689,-0.06191l-0.74734,-0.0545l-0.74823,-0.04713l-0.74823,-0.03975l-0.74912,-0.03243l-0.74957,-0.02519l-0.74957,-0.01792l-0.75002,-0.01072l-0.73751,-0.00353l-0.75002,0.00348l-0.75002,0.01068l-0.74957,0.01787l-0.7493,0.02511l-0.74894,0.03239l-0.74849,0.03971l-0.74796,0.04704l-0.74738,0.05445l-0.74676,0.06183l-0.74604,0.06924l-0.74519,0.0767l-0.74439,0.08421l-0.74341,0.09162l-0.74242,0.09913l-0.74131,0.10667l-0.74019,0.11413l-0.73893,0.12164l-0.73765,0.12914l-0.73625,0.1367l-0.73483,0.14416l-0.73327,0.15165l-0.73175,0.15916l-0.73,0.16662l-0.72835,0.17408l-0.72652,0.18149l-0.7246,0.18891l-0.72273,0.19628l-0.72071,0.20366l-0.71861,0.21098l-0.71651,0.21826l-0.71432,0.22549l-0.712,0.23273l-0.70972,0.23988l-0.70736,0.24702l-0.7049,0.25408l-0.7024,0.26114l-0.69985,0.26812l-0.69726,0.27503l-0.69476,0.28196l-0.6806,0.28392l-0.68909,0.29531l-0.68609,0.30197l-0.68306,0.30863l-0.67988,0.31528l-0.67671,0.32199l-0.67341,0.3286l-0.67006,0.3353l-0.66661,0.34191l-0.66308,0.34852l-0.65956,0.35518l-0.65585,0.36179l-0.65219,0.36835l-0.64834,0.37491l-0.64451,0.38149l-0.64062,0.38796l-0.6366,0.39444l-0.63254,0.40092l-0.62847,0.4073l-0.62423,0.41369l-0.62002,0.42004l-0.61573,0.42629l-0.61137,0.43259l-0.60697,0.43875l-0.60251,0.44492l-0.59801,0.45104l-0.59346,0.45707l-0.58885,0.46305l-0.58421,0.469l-0.57952,0.47484l-0.57479,0.4807l-0.57002,0.48641l-0.56522,0.4921l-0.56039,0.49772l-0.55552,0.50327l-0.55065,0.50875l-0.5457,0.51415l-0.54078,0.51949l-0.53846,0.52741l-0.30215,0.30044l-0.52778,0.53275l-0.5226,0.53772l-0.51729,0.54269l-0.51188,0.54762l-0.50652,0.55254l-0.50098,0.55742l-0.49539,0.56228l-0.48981,0.5671l-0.48405,0.5719l-0.47829,0.57665l-0.47248,0.58134l-0.46658,0.58608l-0.46064,0.59063l-0.45461,0.59527l-0.44858,0.59979l-0.44242,0.6043l-0.43625,0.60872l-0.43008,0.6131l-0.42379,0.61748l-0.41749,0.62172l-0.4111,0.62592l-0.40476,0.63012l-0.39832,0.63419l-0.39185,0.63825l-0.38537,0.64218l-0.37885,0.64611l-0.37233,0.64991l-0.36572,0.65371l-0.35915,0.65742l-0.35254,0.66098l-0.34588,0.66461l-0.33927,0.66804l-0.33266,0.67149l-0.32596,0.67479l-0.31931,0.67805l-0.31265,0.68127l-0.30599,0.68439l-0.30081,0.69092l-0.16707,0.39176l-0.2887,0.69181l-0.28196,0.69449l-0.27503,0.69713l-0.26815,0.69976l-0.26114,0.70235l-0.25413,0.70481l-0.24707,0.70722l-0.23993,0.70968l-0.23278,0.71196l-0.22554,0.71424l-0.21831,0.71642l-0.21102,0.71857l-0.20369,0.72067l-0.19637,0.72263l-0.18895,0.72464l-0.18158,0.72647l-0.17413,0.72826l-0.16667,0.73005l-0.15925,0.7317l-0.1517,0.73331l-0.14424,0.73478l-0.13673,0.7363l-0.12923,0.73765l-0.12173,0.73893l-0.11422,0.74023l-0.10672,0.74135l-0.09917,0.74242l-0.09171,0.74349l-0.08425,0.74443l-0.07679,0.74519l-0.06933,0.74599l-0.06191,0.74689l-0.0545,0.74734l-0.04708,0.74823l-0.0398,0.74867l-0.03243,0.74912l-0.02519,0.74912l-0.01792,0.75002l-0.01072,0.75002l-0.00353,0.73751l0.00348,0.75002l0.01068,0.75002l0.01787,0.74957l0.02511,0.74912l0.03239,0.74912l0.03971,0.74867l0.04704,0.74779l0.05445,0.74734l0.06183,0.74689l0.06929,0.74599l0.0767,0.74511l0.08416,0.74421l0.09167,0.74376l0.09913,0.74242l0.10663,0.74108l0.11413,0.74019l0.12164,0.73885l0.12919,0.73795l0.13665,0.73617l0.14419,0.73483l0.15165,0.73304l0.15916,0.7317l0.16662,0.73036l0.17408,0.72813l0.18149,0.72679l0.18891,0.72456l0.19628,0.72276l0.20366,0.72053l0.21098,0.71875l0.21826,0.71651l0.22549,0.71428l0.23273,0.71205l0.23988,0.70937l0.24702,0.70758l0.25408,0.7049l0.26114,0.70222l0.26812,0.69998l0.27503,0.6973l0.28196,0.69462l0.28388,0.68033l0.29531,0.68926l0.30197,0.68614l0.30863,0.68301l0.31528,0.67988l0.32194,0.67675l0.32864,0.67363l0.33525,0.67006l0.34191,0.66648l0.34856,0.66291l0.35518,0.65978l0.36174,0.65576l0.36835,0.65219l0.37491,0.64817l0.38149,0.64459l0.38796,0.64057l0.39444,0.63655l0.40092,0.63254l0.4073,0.62851l0.41369,0.62449l0.41999,0.62003l0.42633,0.61556l0.43254,0.61154l0.43879,0.60707l0.44492,0.60216l0.45099,0.59814l0.45707,0.59367l0.46305,0.58876l0.469,0.58428l0.47489,0.57937l0.48065,0.57491l0.48642,0.56999l0.49209,0.56508l0.49772,0.56062l0.50325,0.55525l0.50875,0.55079l0.51416,0.54543l0.51952,0.54096l0.52743,0.53827l0.30049,0.30242l0.53274,0.52801l0.53774,0.5222l0.5427,0.51729l0.54761,0.51192l0.55255,0.50656l0.55742,0.5012l0.56227,0.49539l0.56712,0.48959l0.57189,0.48423l0.57665,0.47842l0.58135,0.47216l0.58605,0.4668l0.59067,0.46055l0.59526,0.45474l0.59981,0.44849l0.60426,0.44224l0.60875,0.43643l0.61313,0.43018l0.61743,0.42347l0.62173,0.41767l0.62592,0.41097l0.63012,0.40472l0.63419,0.39846l0.6382,0.39176l0.64223,0.3855l0.64611,0.37881l0.64991,0.37255l0.65371,0.3654l0.65737,0.35915l0.66103,0.3529l0.66456,0.34575l0.66804,0.33949l0.67149,0.33235l0.67479,0.32609l0.6781,0.31939l0.68123,0.3127l0.68439,0.30599l0.69087,0.30063l0.39185,0.16707l0.69177,0.28902l0.69449,0.28187l0.69722,0.27473l0.69972,0.26847l0.70231,0.26088l0.70486,0.25418l0.70722,0.24702l0.70968,0.23988l0.71196,0.23273l0.71424,0.22559l0.71642,0.21844l0.71857,0.21085l0.72067,0.20369l0.72268,0.19655l0.7246,0.18895l0.72647,0.18136l0.72826,0.17422l0.73005,0.16662l0.7317,0.15948l0.73331,0.15143l0.73483,0.14429l0.73625,0.1367l0.73765,0.12954l0.73898,0.1215l0.74019,0.11435l0.74135,0.10676l0.74246,0.09917l0.74349,0.09157l0.74439,0.08443l0.74528,0.07683l0.74609,0.06924l0.7468,0.06165l0.74747,0.0545l0.74805,0.04735l0.74859,0.03975l0.74904,0.03261l0.74939,0.02501l0.74966,0.01787l0.75024,0.01072l0.73751,0.00358l0.75002,-0.00358l0.75002,-0.01072l0.74957,-0.01787l0.74912,-0.02501l0.74912,-0.03216l0.74867,-0.03975l0.74779,-0.04735l0.74734,-0.0545l0.74689,-0.06165l0.74599,-0.06924l0.74511,-0.07683l0.74421,-0.08398l0.74376,-0.09157l0.74242,-0.09917l0.74108,-0.10676l0.74019,-0.11391l0.73885,-0.12195l0.73795,-0.1291l0.73617,-0.1367l0.73483,-0.14429l0.73304,-0.15143l0.73215,-0.15903l0.72992,-0.16662l0.72813,-0.17422l0.72679,-0.18136l0.72456,-0.18895l0.72276,-0.19655l0.72053,-0.20369l0.71875,-0.21085l0.71651,-0.21799l0.71428,-0.22559l0.71205,-0.23273l0.70981,-0.23988l0.70713,-0.24702l0.7049,-0.25418l0.70222,-0.26132l0.69998,-0.26802l0.6973,-0.27517l0.69462,-0.28187l0.68033,-0.28366l0.68926,-0.29528l0.68614,-0.30197l0.68301,-0.30867l0.67988,-0.31538l0.67675,-0.32207l0.67318,-0.32877l0.67006,-0.33503l0.66693,-0.34217l0.66291,-0.34843l0.65978,-0.35513l0.65576,-0.36183l0.65219,-0.36808l0.64817,-0.37523l0.64459,-0.38149l0.64057,-0.38774l0.63655,-0.39444l0.63254,-0.40114l0.62851,-0.40695l0.62449,-0.41409l0.62003,-0.4199l0.61556,-0.42615l0.61154,-0.43286l0.60663,-0.43866l0.6026,-0.44492l0.59814,-0.45117l0.59322,-0.45698l0.58921,-0.46279l0.58384,-0.46904l0.57982,-0.47484l0.57446,-0.48065l0.57044,-0.48646l0.56508,-0.49226l0.56017,-0.49763l0.5557,-0.50343l0.55079,-0.5088l0.54543,-0.51371l0.54096,-0.51952l0.53827,-0.52756l0.30242,-0.30063l0.52801,-0.53292l0.5222,-0.53739l0.51729,-0.54275l0.51192,-0.54766l0.50656,-0.55257l0.5012,-0.55749l0.49539,-0.5624l0.48959,-0.56686l0.48423,-0.57223l0.47842,-0.57625l0.47216,-0.58161l0.4668,-0.58608l0.46055,-0.59054l0.45474,-0.59546l0.44849,-0.59948l0.44224,-0.60439l0.43643,-0.60886l0.43018,-0.61288l0.42347,-0.61779l0.41767,-0.62137l0.41097,-0.62628l0.40472,-0.62986l0.39846,-0.63432l0.39176,-0.63834l0.3855,-0.64191l0.37881,-0.64638l0.37255,-0.64996l0.3654,-0.65352l0.35915,-0.65755l0.3529,-0.66068l0.34575,-0.6647l0.33905,-0.66827l0.3328,-0.67139l0.32609,-0.67452l0.31939,-0.6781l0.3127,-0.68123l0.30599,-0.6848l0.30063,-0.6906l0.16707,-0.39221l0.28902,-0.6915l0.28187,-0.69462l0.27473,-0.6973l0.26847,-0.69954l0.26088,-0.70222l0.25418,-0.7049l0.24702,-0.70713l0.23988,-0.70981l0.23318,-0.71205l0.22514,-0.71428l0.21844,-0.71651l0.21129,-0.7183l0.20369,-0.72053l0.1961,-0.72276l0.18895,-0.72456l0.18181,-0.72679l0.17377,-0.72813l0.16707,-0.72992l0.15903,-0.7317l0.15188,-0.73349l0.14384,-0.73483l0.13714,-0.73617l0.1291,-0.73751l0.1215,-0.7393l0.11435,-0.74019l0.10676,-0.74108l0.09917,-0.74242l0.09157,-0.74376l0.08443,-0.74421l0.07683,-0.74555l0.06924,-0.74599l0.06165,-0.74689l0.0545,-0.74734l0.04735,-0.74823l0.03975,-0.74823l0.03261,-0.74912l0.02501,-0.74957l0.01787,-0.74957l0.01072,-0.75002l0.00358,-0.73751v-0.01742z" data-paper-data="{&quot;isPathIcon&quot;:true}"></path></g><g data-paper-data="{&quot;isPrimaryText&quot;:true}" fill-rule="nonzero"><path d="M183.78921,190.19772l-2.79225,6.34077l10.06472,4.43214l-1.69899,3.85814l-22.14238,-9.75071l5.56972,-12.648l3.35491,1.47738l-3.87073,8.78986l5.36785,2.36381l2.79225,-6.34077z" data-paper-data="{&quot;glyphName&quot;:&quot;F&quot;,&quot;glyphIndex&quot;:0,&quot;firstGlyphOfWord&quot;:true,&quot;word&quot;:1}"></path><path d="M213.52714,168.11197l-2.94795,3.50807l-7.15716,-2.42321l-5.87232,6.98807l3.78471,6.43644l-2.83003,3.36775l-12.4852,-22.7497l2.33478,-2.77839zM195.77858,173.16431l4.26863,-5.07968l-9.06013,-3.06468z" data-paper-data="{&quot;glyphName&quot;:&quot;A&quot;,&quot;glyphIndex&quot;:1,&quot;word&quot;:1}"></path><path d="M214.59968,144.46206c0.27061,0.43607 0.60119,0.74863 0.99176,0.93769c0.39056,0.18906 0.83322,0.28827 1.32798,0.29762c0.49476,0.00935 1.04733,-0.03875 1.65774,-0.1443c0.6104,-0.10556 1.28113,-0.24136 2.01218,-0.4074c0.91507,-0.19395 1.84749,-0.34835 2.79728,-0.46318c0.94979,-0.11483 1.87844,-0.1015 2.78596,0.03999c0.90752,0.14149 1.78012,0.47004 2.61779,0.98563c0.83768,0.5156 1.58511,1.30291 2.2423,2.36193c0.69585,1.12132 1.07971,2.19178 1.15158,3.21137c0.07187,1.01959 -0.08986,1.97562 -0.48517,2.86808c-0.39531,0.89246 -0.97499,1.71957 -1.73903,2.48133c-0.76404,0.76176 -1.62366,1.43902 -2.57886,2.03178c-1.3705,0.85049 -2.75584,1.48008 -4.15602,1.88879c-1.40018,0.40871 -2.67414,0.63843 -3.8219,0.68916l-1.15312,-3.94384c1.16278,0.11252 2.34937,0.06644 3.55979,-0.13822c1.21042,-0.20467 2.43858,-0.69359 3.6845,-1.46675c1.32897,-0.82471 2.14959,-1.65753 2.46184,-2.49844c0.31225,-0.84092 0.22354,-1.65591 -0.26613,-2.44499c-0.3737,-0.60219 -0.83799,-1.02593 -1.39287,-1.27121c-0.55488,-0.24528 -1.14378,-0.38316 -1.7667,-0.41365c-0.62292,-0.03049 -1.23636,0.01224 -1.84031,0.12818c-0.60396,0.11594 -1.13148,0.22759 -1.58257,0.33495c-0.79335,0.2047 -1.62285,0.37432 -2.48851,0.50885c-0.86566,0.13453 -1.73417,0.14859 -2.60553,0.04219c-0.87136,-0.1064 -1.70781,-0.39986 -2.50933,-0.88037c-0.80152,-0.48051 -1.53088,-1.25028 -2.18807,-2.3093c-0.61854,-0.99673 -0.96911,-1.94403 -1.05173,-2.8419c-0.08262,-0.89787 0.0399,-1.74328 0.36754,-2.53622c0.32764,-0.79294 0.83321,-1.53091 1.51669,-2.21392c0.68349,-0.683 1.49244,-1.31444 2.42688,-1.89432c1.14209,-0.70874 2.31871,-1.28072 3.52986,-1.71594c1.21116,-0.43522 2.28321,-0.71222 3.21617,-0.83099l1.20791,3.82356c-0.52841,-0.01723 -1.06863,0.01601 -1.62068,0.09974c-0.55204,0.08372 -1.10033,0.20826 -1.64487,0.3736c-0.54453,0.16535 -1.07296,0.35665 -1.58528,0.57391c-0.51232,0.21726 -0.97613,0.45475 -1.39143,0.71247c-0.93443,0.57988 -1.56207,1.21384 -1.8829,1.90189c-0.32083,0.68805 -0.25574,1.39546 0.19528,2.12225z" data-paper-data="{&quot;glyphName&quot;:&quot;S&quot;,&quot;glyphIndex&quot;:2,&quot;word&quot;:1}"></path><path d="M256.26317,125.32801l-6.78235,1.73872l5.09781,19.88541l-4.08361,1.04687l-5.09781,-19.88541l-6.78235,1.73872l-0.91032,-3.55097l17.6483,-4.5243z" data-paper-data="{&quot;glyphName&quot;:&quot;T&quot;,&quot;glyphIndex&quot;:3,&quot;word&quot;:1}"></path><path d="M284.75293,133.86269l-6.91824,-0.37423l-0.59401,10.98133l-4.20951,-0.22771l1.30683,-24.15893l13.79987,0.74648l-0.198,3.66044l-9.59036,-0.51877l-0.31681,5.85671l6.91824,0.37423z" data-paper-data="{&quot;glyphName&quot;:&quot;F&quot;,&quot;glyphIndex&quot;:4,&quot;word&quot;:1}"></path><path d="M316.48145,128.31474c1.77671,0.69062 3.22888,1.60906 4.35652,2.75532c1.12764,1.14626 1.95256,2.43049 2.47475,3.8527c0.5222,1.42221 0.75242,2.92102 0.69066,4.49643c-0.06175,1.57541 -0.38924,3.12619 -0.98247,4.65234c-0.58437,1.50337 -1.3823,2.86473 -2.39378,4.08409c-1.01148,1.21936 -2.20016,2.1863 -3.56603,2.90082c-1.36587,0.71453 -2.87541,1.12412 -4.52862,1.22877c-1.65321,0.10466 -3.41372,-0.20603 -5.28155,-0.93207c-1.82227,-0.70833 -3.28583,-1.63119 -4.39069,-2.7686c-1.10486,-1.13741 -1.89782,-2.40267 -2.37889,-3.79578c-0.48107,-1.39311 -0.67585,-2.86504 -0.58436,-4.41578c0.0915,-1.55074 0.43386,-3.08919 1.02708,-4.61534c0.62864,-1.61726 1.46452,-3.04253 2.50763,-4.27581c1.04311,-1.23328 2.23748,-2.19801 3.58311,-2.89418c1.34563,-0.69617 2.82132,-1.08615 4.42708,-1.16991c1.60576,-0.08377 3.2856,0.21523 5.03953,0.89699zM308.62084,148.0313c1.25281,0.48698 2.39959,0.6902 3.44036,0.60969c1.04077,-0.08052 1.98976,-0.38025 2.84697,-0.89919c0.85722,-0.51894 1.61159,-1.22863 2.26312,-2.12905c0.65153,-0.90042 1.19865,-1.92009 1.64135,-3.05901c0.47812,-1.23003 0.7753,-2.39929 0.89154,-3.50779c0.11624,-1.1085 0.0313,-2.13787 -0.25483,-3.08813c-0.28613,-0.95026 -0.7902,-1.79514 -1.51222,-2.53464c-0.72202,-0.7395 -1.67526,-1.33946 -2.85974,-1.79987c-1.20725,-0.46927 -2.31544,-0.6706 -3.32458,-0.60401c-1.00913,0.06659 -1.91858,0.34892 -2.72835,0.84697c-0.80977,0.49806 -1.5246,1.19033 -2.1445,2.07683c-0.6199,0.8865 -1.16005,1.92199 -1.62047,3.10646c-1.0802,2.77895 -1.32532,5.09591 -0.73536,6.95087c0.58996,1.85496 1.95552,3.19858 4.09669,4.03087z" data-paper-data="{&quot;glyphName&quot;:&quot;O&quot;,&quot;glyphIndex&quot;:5,&quot;word&quot;:1}"></path><path d="M352.70603,150.96892c1.39987,1.29384 2.41429,2.68067 3.04324,4.1605c0.62896,1.47983 0.92569,2.97706 0.89019,4.49169c-0.03549,1.51463 -0.37072,2.9935 -1.00568,4.43661c-0.63496,1.44311 -1.50812,2.76589 -2.61949,3.96835c-1.09478,1.18451 -2.3362,2.15861 -3.72426,2.92231c-1.38805,0.7637 -2.84844,1.2276 -4.38115,1.3917c-1.53272,0.1641 -3.08732,-0.00818 -4.66381,-0.51682c-1.57649,-0.50865 -3.10057,-1.44306 -4.57223,-2.80325c-1.43577,-1.32701 -2.45915,-2.72214 -3.07016,-4.18538c-0.61101,-1.46324 -0.88497,-2.9311 -0.82187,-4.40359c0.0631,-1.47248 0.42143,-2.91335 1.07502,-4.32261c0.65358,-1.40926 1.53606,-2.71511 2.64743,-3.91756c1.17772,-1.27424 2.47788,-2.29389 3.90047,-3.05895c1.42259,-0.76506 2.88746,-1.22481 4.39461,-1.37926c1.50715,-0.15445 3.02308,0.02367 4.54777,0.53436c1.52469,0.51069 2.978,1.40465 4.35992,2.6819zM338.16507,166.43155c0.98709,0.91232 1.97955,1.52178 2.97738,1.82838c0.99783,0.3066 1.99064,0.37561 2.97841,0.20702c0.98777,-0.16859 1.94979,-0.55234 2.88603,-1.15125c0.93625,-0.59891 1.81906,-1.34705 2.64844,-2.2444c0.89573,-0.96914 1.60084,-1.94807 2.11533,-2.9368c0.51449,-0.98872 0.8128,-1.97758 0.89493,-2.96658c0.08213,-0.989 -0.07715,-1.95984 -0.47783,-2.91254c-0.40068,-0.9527 -1.06764,-1.86032 -2.00089,-2.72288c-0.95119,-0.87914 -1.90844,-1.4727 -2.87174,-1.78066c-0.9633,-0.30796 -1.91293,-0.37867 -2.84891,-0.21212c-0.93597,0.16655 -1.85482,0.5486 -2.75653,1.14616c-0.90171,0.59755 -1.78385,1.36295 -2.6464,2.2962c-2.02369,2.18954 -3.10108,4.25536 -3.23216,6.19746c-0.13108,1.9421 0.64689,3.69277 2.33392,5.25201z" data-paper-data="{&quot;glyphName&quot;:&quot;O&quot;,&quot;glyphIndex&quot;:6,&quot;word&quot;:1}"></path><path d="M373.58574,175.98043c0.1599,0.27561 0.39936,0.71636 0.71836,1.32222c0.319,0.60587 0.64841,1.24741 0.98822,1.92464c0.33981,0.67722 0.66637,1.32692 0.97966,1.9491c0.3133,0.62218 0.5548,1.10941 0.7245,1.46168c1.02884,2.13565 1.65455,3.99756 1.87712,5.58576c0.22257,1.58819 0.166,3.01925 -0.16972,4.29318c-0.45063,1.6548 -1.33027,3.12294 -2.63891,4.40442c-1.30865,1.28148 -2.9097,2.3783 -4.80316,3.29047c-1.4311,0.68943 -2.88916,1.16805 -4.37418,1.43586c-1.48502,0.26781 -2.9483,0.17251 -4.38984,-0.28592c-1.44154,-0.45842 -2.84914,-1.36723 -4.22278,-2.72642c-1.37364,-1.35919 -2.67565,-3.31577 -3.90601,-5.86973c-0.44548,-0.92471 -0.88975,-1.93139 -1.33282,-3.02002c-0.44307,-1.08863 -0.85881,-2.17687 -1.24724,-3.2647zM357.95189,192.17896c1.2834,2.66405 2.85792,4.29946 4.72357,4.90622c1.86565,0.60676 4.24059,0.21541 7.12481,-1.17406c1.299,-0.62579 2.37739,-1.30128 3.23517,-2.02647c0.85778,-0.72519 1.46843,-1.55512 1.83195,-2.48979c0.36352,-0.93467 0.46116,-1.99896 0.2929,-3.19285c-0.16826,-1.1939 -0.62361,-2.56144 -1.36608,-4.10263c-0.14849,-0.30824 -0.34737,-0.72106 -0.59662,-1.23845c-0.24926,-0.5174 -0.52278,-1.05702 -0.82057,-1.61885l-15.85221,7.63675c0.25295,0.63769 0.5063,1.24806 0.76006,1.8311c0.25375,0.58305 0.47609,1.07272 0.66701,1.46903z" data-paper-data="{&quot;glyphName&quot;:&quot;D&quot;,&quot;glyphIndex&quot;:7,&quot;lastGlyphOfWord&quot;:true,&quot;word&quot;:1}"></path></g><g data-paper-data="{&quot;isMirroredPrimaryText&quot;:true}" fill-rule="nonzero"><path d="M181.60852,280.76269l-2.79225,-6.34077l-10.06472,4.43214l-1.69899,-3.85814l22.14238,-9.75071l5.56972,12.648l-3.35491,1.47738l-3.87073,-8.78986l-5.36785,2.36381l2.79225,6.34077z" data-paper-data="{&quot;glyphName&quot;:&quot;F&quot;,&quot;glyphIndex&quot;:0,&quot;firstGlyphOfWord&quot;:true,&quot;word&quot;:1}"></path><path d="M194.86422,317.57123l-2.94795,-3.50807l3.61962,-6.63289l-5.87232,-6.98807l-6.99208,2.61966l-2.83003,-3.36775l24.56,-8.38065l2.33478,2.77839zM192.94406,299.21774l4.26863,5.07968l4.57924,-8.39695z" data-paper-data="{&quot;glyphName&quot;:&quot;A&quot;,&quot;glyphIndex&quot;:1,&quot;word&quot;:1}"></path><path d="M221.11362,315.04124c-0.27061,0.43607 -0.40393,0.87105 -0.39995,1.30495c0.00398,0.4339 0.1116,0.87459 0.32286,1.32207c0.21126,0.44748 0.49967,0.92127 0.86524,1.42136c0.36556,0.50009 0.78501,1.04082 1.25834,1.62217c0.58003,0.73385 1.13231,1.50082 1.65686,2.3009c0.52454,0.80008 0.92486,1.63813 1.20096,2.51413c0.2761,0.876 0.36908,1.80375 0.27895,2.78325c-0.09013,0.9795 -0.46379,1.99876 -1.12098,3.05779c-0.69585,1.12132 -1.48463,1.9405 -2.36634,2.45753c-0.88171,0.51703 -1.81016,0.79654 -2.78535,0.83851c-0.97519,0.04197 -1.97367,-0.11026 -2.99543,-0.45672c-1.02177,-0.34645 -2.01025,-0.81606 -2.96545,-1.40882c-1.3705,-0.85049 -2.54967,-1.81233 -3.53749,-2.88552c-0.98782,-1.0732 -1.75923,-2.11276 -2.31422,-3.11869l3.02199,-2.78409c0.41538,1.09186 0.98344,2.13467 1.70419,3.12841c0.72075,0.99374 1.70407,1.8772 2.94999,2.65037c1.32897,0.82471 2.43952,1.19031 3.33165,1.09679c0.89213,-0.09352 1.58303,-0.53482 2.0727,-1.32389c0.3737,-0.60219 0.54727,-1.20633 0.52073,-1.81243c-0.02655,-0.60609 -0.16443,-1.19499 -0.41365,-1.7667c-0.24922,-0.5717 -0.55983,-1.10241 -0.93184,-1.59212c-0.37201,-0.48971 -0.70624,-0.91284 -1.0027,-1.26938c-0.53563,-0.62001 -1.05586,-1.28799 -1.56071,-2.00395c-0.50485,-0.71596 -0.90301,-1.48795 -1.1945,-2.31598c-0.29149,-0.82803 -0.39986,-1.70781 -0.32512,-2.63933c0.07474,-0.93152 0.4407,-1.9268 1.0979,-2.98583c0.61854,-0.99673 1.31174,-1.73141 2.07961,-2.20404c0.76787,-0.47263 1.57979,-0.73816 2.43577,-0.79659c0.85597,-0.05843 1.74168,0.06697 2.65712,0.3762c0.91544,0.30923 1.84037,0.75378 2.77481,1.33366c1.14209,0.70874 2.17696,1.50913 3.10462,2.40119c0.92766,0.89205 1.65179,1.72971 2.1724,2.51297l-2.88989,2.77978c-0.21914,-0.48113 -0.48876,-0.95045 -0.80885,-1.40794c-0.32009,-0.4575 -0.67509,-0.89351 -1.06499,-1.30804c-0.3899,-0.41453 -0.79591,-0.8031 -1.21802,-1.16572c-0.42212,-0.36262 -0.84083,-0.67279 -1.25613,-0.93051c-0.93443,-0.57988 -1.78113,-0.86083 -2.54009,-0.84286c-0.75896,0.01797 -1.36395,0.39034 -1.81496,1.11713z" data-paper-data="{&quot;glyphName&quot;:&quot;S&quot;,&quot;glyphIndex&quot;:2,&quot;word&quot;:1}"></path><path d="M260.40514,328.5152l-6.78235,-1.73872l-5.09781,19.88541l-4.08361,-1.04687l5.09781,-19.88541l-6.78235,-1.73872l0.91032,-3.55097l17.6483,4.5243z" data-paper-data="{&quot;glyphName&quot;:&quot;T&quot;,&quot;glyphIndex&quot;:3,&quot;word&quot;:1}"></path><path d="M284.88164,338.5167l-6.91824,0.37423l0.59401,10.98133l-4.20951,0.22771l-1.30683,-24.15893l13.79987,-0.74648l0.198,3.66044l-9.59036,0.51877l0.31681,5.85671l6.91824,-0.37423z" data-paper-data="{&quot;glyphName&quot;:&quot;F&quot;,&quot;glyphIndex&quot;:4,&quot;word&quot;:1}"></path><path d="M307.6495,318.964c1.77671,-0.69062 3.46794,-0.99404 5.0737,-0.91028c1.60576,0.08377 3.08145,0.47374 4.42708,1.16991c1.34563,0.69617 2.52766,1.64603 3.54611,2.84957c1.01844,1.20354 1.82428,2.56839 2.4175,4.09453c0.58437,1.50337 0.91534,3.04624 0.99291,4.62862c0.07757,1.58238 -0.14601,3.09827 -0.67074,4.54769c-0.52473,1.44941 -1.36136,2.77098 -2.50988,3.96469c-1.14852,1.19371 -2.6567,2.15358 -4.52452,2.87962c-1.82227,0.70833 -3.52489,1.01618 -5.10787,0.92356c-1.58298,-0.09262 -3.02229,-0.49018 -4.31794,-1.19267c-1.29564,-0.70249 -2.43339,-1.65646 -3.41324,-2.86189c-0.97985,-1.20543 -1.76639,-2.57122 -2.35961,-4.09737c-0.62864,-1.61726 -0.97478,-3.23289 -1.03843,-4.8469c-0.06365,-1.61401 0.16563,-3.13212 0.68782,-4.55433c0.5222,-1.42221 1.34711,-2.70644 2.47475,-3.8527c1.12764,-1.14626 2.56842,-2.06027 4.32235,-2.74204zM315.16844,338.81337c1.25281,-0.48698 2.23579,-1.1116 2.94896,-1.87388c0.71316,-0.76228 1.2106,-1.62425 1.4923,-2.58589c0.2817,-0.96165 0.35874,-1.99451 0.23111,-3.09857c-0.12763,-1.10407 -0.4128,-2.22556 -0.8555,-3.36448c-0.47812,-1.23003 -1.04864,-2.29304 -1.71156,-3.18904c-0.66292,-0.896 -1.42077,-1.59777 -2.27356,-2.10533c-0.85279,-0.50755 -1.79514,-0.7902 -2.82705,-0.84794c-1.03191,-0.05774 -2.1401,0.1436 -3.32458,0.60401c-1.20725,0.46927 -2.1605,1.06922 -2.85974,1.79987c-0.69924,0.73065 -1.17927,1.55307 -1.44008,2.46727c-0.26081,0.9142 -0.32044,1.90752 -0.17889,2.97995c0.14155,1.07244 0.44254,2.20089 0.90295,3.38536c1.0802,2.77895 2.46423,4.65321 4.1521,5.62276c1.68787,0.96955 3.60239,1.03818 5.74355,0.2059z" data-paper-data="{&quot;glyphName&quot;:&quot;O&quot;,&quot;glyphIndex&quot;:5,&quot;word&quot;:1}"></path><path d="M336.15987,301.12898c1.39987,-1.29384 2.86215,-2.1961 4.38684,-2.70678c1.52469,-0.51069 3.04061,-0.68881 4.54777,-0.53436c1.50715,0.15445 2.9551,0.60488 4.34383,1.35132c1.38873,0.74643 2.63879,1.72087 3.75016,2.92333c1.09478,1.18451 1.96829,2.49866 2.62051,3.94245c0.65222,1.44379 0.99989,2.93612 1.043,4.477c0.04311,1.54087 -0.25084,3.07712 -0.88183,4.60875c-0.631,1.53163 -1.68233,2.97754 -3.15399,4.33772c-1.43577,1.32701 -2.90702,2.23757 -4.41376,2.73166c-1.50674,0.4941 -2.9916,0.65183 -4.45456,0.47318c-1.46297,-0.17865 -2.87121,-0.64914 -4.22473,-1.41148c-1.35352,-0.76234 -2.58596,-1.74474 -3.69734,-2.94719c-1.17772,-1.27424 -2.09201,-2.65053 -2.74288,-4.12885c-0.65086,-1.47833 -0.99404,-2.9748 -1.02954,-4.48944c-0.03549,-1.51463 0.26124,-3.01186 0.89019,-4.49169c0.62896,-1.47983 1.6344,-2.85837 3.01632,-4.13561zM350.43162,316.84042c0.98709,-0.91232 1.67268,-1.8538 2.05677,-2.82445c0.38409,-0.97064 0.53093,-1.95495 0.4405,-2.95292c-0.09042,-0.99797 -0.39736,-1.98717 -0.92083,-2.9676c-0.52346,-0.98043 -1.19989,-1.91932 -2.02927,-2.81667c-0.89573,-0.96914 -1.81621,-1.74902 -2.76143,-2.33964c-0.94522,-0.59062 -1.90757,-0.96574 -2.88705,-1.12535c-0.97948,-0.15962 -1.95984,-0.07715 -2.94109,0.2474c-0.98125,0.32455 -1.93849,0.9181 -2.87174,1.78066c-0.95119,0.87914 -1.61816,1.78677 -2.00089,2.72288c-0.38273,0.93611 -0.52787,1.87725 -0.43541,2.82342c0.09246,0.94617 0.4011,1.8922 0.92593,2.83809c0.52482,0.94589 1.21851,1.88546 2.08107,2.81871c2.02369,2.18954 3.99843,3.42598 5.92422,3.70932c1.92579,0.28334 3.73219,-0.35461 5.41922,-1.91385z" data-paper-data="{&quot;glyphName&quot;:&quot;O&quot;,&quot;glyphIndex&quot;:6,&quot;word&quot;:1}"></path><path d="M351.95407,283.59869c0.11587,-0.29683 0.31129,-0.75878 0.58626,-1.38586c0.27497,-0.62708 0.57135,-1.28454 0.88915,-1.97237c0.3178,-0.68783 0.62233,-1.34814 0.91361,-1.98092c0.29128,-0.63279 0.52177,-1.12532 0.69148,-1.47759c1.02884,-2.13565 2.09489,-3.78543 3.19814,-4.94936c1.10325,-1.16393 2.25761,-2.01162 3.46307,-2.54309c1.57493,-0.679 3.27128,-0.90616 5.08904,-0.6815c1.81776,0.22466 3.67337,0.79308 5.56683,1.70524c1.4311,0.68943 2.71415,1.53133 3.84915,2.5257c1.135,0.99437 1.97249,2.19807 2.51247,3.61109c0.53998,1.41302 0.7066,3.0802 0.49986,5.00154c-0.20674,1.92134 -0.9253,4.15899 -2.15566,6.71296c-0.44548,0.92471 -0.9558,1.89957 -1.53097,2.92456c-0.57517,1.02499 -1.16705,2.02837 -1.77564,3.01014zM374.36554,285.72837c1.2834,-2.66405 1.58094,-4.91464 0.89262,-6.75177c-0.68832,-1.83712 -2.47459,-3.45042 -5.35881,-4.83988c-1.299,-0.62579 -2.49937,-1.04808 -3.6011,-1.26688c-1.10173,-0.2188 -2.13134,-0.17906 -3.08884,0.11922c-0.95749,0.29828 -1.85062,0.88526 -2.67939,1.76096c-0.82876,0.8757 -1.61438,2.08414 -2.35684,3.62533c-0.14849,0.30824 -0.34737,0.72106 -0.59662,1.23845c-0.24926,0.5174 -0.50076,1.06762 -0.75451,1.65067l15.85221,7.63675c0.34102,-0.59526 0.66042,-1.17381 0.95821,-1.73564c0.29779,-0.56183 0.54214,-1.0409 0.73306,-1.43721z" data-paper-data="{&quot;glyphName&quot;:&quot;D&quot;,&quot;glyphIndex&quot;:7,&quot;lastGlyphOfWord&quot;:true,&quot;word&quot;:1}"></path></g><g data-paper-data="{&quot;isContainerElementsWrapper&quot;:true}" fill-rule="evenodd"><path d="M183.78327,143.78332c-11.90221,11.90216 -21.11724,25.57002 -27.64509,41.00358c-6.75876,15.97965 -10.13814,32.71737 -10.13814,50.21314c0,17.49591 3.37938,34.23359 10.13814,50.21304c6.52771,15.43377 15.74274,29.10176 27.64509,41.00398c11.90301,11.90287 25.57087,21.11793 41.00358,27.64518c15.9807,6.7585 32.71841,10.13775 50.21314,10.13775c17.49525,0 34.23293,-3.37925 50.21304,-10.13775c15.43443,-6.52791 29.10242,-15.74297 41.00398,-27.64518c11.90287,-11.90352 21.11793,-25.57152 27.64518,-41.00398c6.7585,-15.98011 10.13775,-32.71779 10.13775,-50.21304c0,-17.49591 -3.37925,-34.23362 -10.13775,-50.21314c-6.52791,-15.43395 -15.74297,-29.10181 -27.64518,-41.00358c-11.90287,-11.90235 -25.57086,-21.11737 -41.00398,-27.64509c-15.9788,-6.75883 -32.71648,-10.13824 -50.21304,-10.13824c-17.49571,0 -34.23343,3.37941 -50.21314,10.13824c-15.43336,6.52771 -29.10123,15.74274 -41.00358,27.64509zM148.54485,235.00005c0,-17.15173 3.31236,-33.55902 9.93709,-49.22187c6.39879,-15.1287 15.43236,-28.52719 27.10071,-40.19547c11.66832,-11.66828 25.06681,-20.70185 40.19547,-27.10071c15.66285,-6.6248 32.07014,-9.93719 49.22187,-9.93719c17.15264,0 33.56016,3.3124 49.22256,9.93719c15.12785,6.39879 28.52594,15.43236 40.19429,27.10071c11.66835,11.66753 20.70195,25.06602 27.10081,40.19547c6.62486,15.6622 9.93729,32.06949 9.93729,49.22187c0,17.15133 -3.31243,33.55885 -9.93729,49.22256c-6.39755,15.12719 -15.43115,28.52529 -27.10081,40.19429c-11.66704,11.66835 -25.06514,20.70195 -40.19429,27.10081c-15.6637,6.62486 -32.07122,9.93729 -49.22256,9.93729c-17.15074,0 -33.55803,-3.31243 -49.22187,-9.93729c-15.12763,-6.39755 -28.52612,-15.43115 -40.19547,-27.10081c-11.66815,-11.66769 -20.70172,-25.06579 -27.10071,-40.19429c-6.62473,-15.66305 -9.93709,-32.07057 -9.93709,-49.22256z" data-paper-data="{&quot;isBaseLogoContainer&quot;:true}"></path></g></g></g></svg>